<svg width="42" height="29" viewBox="0 0 42 29" fill="none" xmlns="http://www.w3.org/2000/svg">
<path d="M4.64197 0H37.358C40.4444 0 42 1.42583 42 4.32583V24.6742C42 27.55 40.4444 29 37.358 29H4.64197C1.55556 29 0 27.55 0 24.6742V4.32583C0 1.42583 1.55556 0 4.64197 0ZM20.9877 20.7833L37.6296 7.41917C38.2222 6.93583 38.6914 5.82417 37.9506 4.83333C37.2346 3.8425 35.9259 3.81833 35.0617 4.4225L20.9877 13.7508L6.93827 4.4225C6.07407 3.81833 4.76543 3.8425 4.04938 4.83333C3.30864 5.82417 3.77778 6.93583 4.37037 7.41917L20.9877 20.7833Z" fill="#262626"/>
</svg>
