<?xml version="1.0" encoding="utf-8"?>
<!-- Generator: Adobe Illustrator 24.1.2, SVG Export Plug-In . SVG Version: 6.00 Build 0)  -->
<svg version="1.1" id="Layer_1" xmlns="http://www.w3.org/2000/svg" xmlns:xlink="http://www.w3.org/1999/xlink" x="0px" y="0px"
	 viewBox="0 0 100 100" style="enable-background:new 0 0 100 100;" xml:space="preserve">
<style type="text/css">
	.st0{fill:#CCDEED;stroke:#000000;stroke-width:1.9684;}
	.st1{fill:#CCDEED;}
	.st2{fill:#262626;}
</style>
<path d="M14.7,12.5h72.8c5.7,0,10.4,4.5,10.4,10v54.1c0,5.5-4.7,10-10.4,10H14.7c-5.7,0-10.4-4.5-10.4-10V22.5
	C4.2,17,8.8,12.5,14.7,12.5z"/>
<path class="st0" d="M16.4,14.5h70.7c4.9,0,8.9,3.9,8.9,8.9v53.3c0,4.9-3.9,8.9-8.9,8.9H16.4c-4.9,0-8.9-3.9-8.9-8.9V23.3
	C7.6,18.4,11.5,14.5,16.4,14.5z"/>
<path class="st1" d="M18.4,15.6h64.9c5.5,0,9.8,4.3,9.8,9.8v49.2c0,5.5-4.3,9.8-9.8,9.8H18.4c-5.5,0-9.8-4.3-9.8-9.8V25.5
	C8.6,20,12.9,15.6,18.4,15.6z"/>
<path class="st2" d="M36.3,66.8H32V35.5H21v-3.9h26.4v3.9H36.5v31.3H36.3z M82.1,49.1c0,4.3-0.8,7.9-2.6,11c-1.8,3-4.3,5.1-7.7,6.3
	l8.5,8.9H74l-6.9-7.9c-0.2,0-0.4,0-0.6,0s-0.4,0-0.6,0c-3.5,0-6.7-0.8-9-2.4c-2.4-1.6-4.1-3.5-5.3-6.3s-1.8-5.9-1.8-9.4
	s0.6-6.7,1.8-9.4c1.2-2.8,3-4.7,5.3-6.3c2.4-1.6,5.5-2.4,9.2-2.4c3.5,0,6.5,0.8,8.9,2.4s4.1,3.5,5.5,6.3
	C81.5,42.4,82.1,45.5,82.1,49.1z M54.4,49.1c0,4.3,1,7.9,2.8,10.4c2,2.6,4.7,3.7,8.9,3.7c3.9,0,6.9-1.2,8.9-3.7
	c1.8-2.6,2.8-6.1,2.8-10.4s-1-7.9-2.8-10.4c-1.8-2.6-4.7-3.7-8.7-3.7s-6.9,1.2-8.9,3.7C55.4,41.2,54.4,44.7,54.4,49.1z"/>
</svg>
